# xmcd
#
# Track frame offsets:
#	150
#	22189
#	42883
#	58849
#	75842
#
# Disc length: 1248 seconds
#
# Revision: 0
# Processed by: cddbd v1.5.2PL0 Copyright (c) Steve Scherf et al.
# Submitted via: audiograbber 1.83.01
#
DISCID=3504de05
DTITLE=Jean Jacque PHAL - JUAN DEL KHAN
DYEAR=2004
DGENRE=
TTITLE0=LA SORCIERE AUX CHEVEUX NOIRS
TTITLE1=SZANNE
TTITLE2=AUX LARMES TARIES
TTITLE3=DES MOTS COURTS
TTITLE4=CHIMERES ET PLAFOND BAS
EXTD=
EXTT0=
EXTT1=
EXTT2=
EXTT3=
EXTT4=
PLAYORDER=
